<svg width="395" height="368" viewBox="0 0 395 368" fill="none" xmlns="http://www.w3.org/2000/svg">
<path d="M-271 0H395V444H-271V0Z" fill="#C8B9D6"/>
<path d="M288.089 224.901C281.739 224.901 276.591 230.048 276.591 236.398C276.591 242.748 281.739 247.896 288.089 247.896C294.438 247.896 299.586 242.748 299.586 236.398C299.586 230.048 294.438 224.901 288.089 224.901Z" fill="#5A287D"/>
<path d="M227.055 169.483C224.277 169.483 222.025 167.231 222.025 164.452C222.025 161.674 224.277 159.422 227.055 159.422C229.834 159.422 232.086 161.674 232.086 164.452C232.086 167.231 229.834 169.483 227.055 169.483Z" fill="#5A287D"/>
<path d="M264.395 127.376C260.029 127.376 256.49 123.836 256.49 119.471C256.49 115.105 260.029 111.566 264.395 111.566C268.76 111.566 272.299 115.105 272.299 119.471C272.299 123.836 268.76 127.376 264.395 127.376Z" fill="#E1E4E5"/>
<path d="M16.0127 79.6869C10.7974 79.6869 6.56952 75.4591 6.56952 70.2438C6.56952 65.0285 10.7974 60.8007 16.0127 60.8007C21.228 60.8007 25.4558 65.0285 25.4558 70.2438C25.4558 75.4591 21.228 79.6869 16.0127 79.6869Z" fill="#E1E4E5"/>
<path d="M255.592 301.019C251.58 301.019 248.328 298.417 248.328 295.207C248.328 291.998 251.58 289.396 255.592 289.396C259.603 289.396 262.855 291.998 262.855 295.207C262.855 298.417 259.603 301.019 255.592 301.019Z" fill="#E1E4E5"/>
<path d="M183.237 60.7153C184.557 65.6388 181.635 70.6995 176.711 72.0188C171.788 73.338 166.727 70.4162 165.408 65.4927C164.089 60.5692 167.01 55.5084 171.934 54.1892C176.857 52.8699 181.918 55.7917 183.237 60.7153Z" fill="#E1E4E5"/>
<path d="M-93.2631 82.191H-93.1595C-92.5468 90.8734 -86.0903 91.0066 -86.0903 91.0066C-86.0903 91.0066 -93.2098 91.1458 -93.2098 101.178C-93.2098 91.1458 -100.33 91.0066 -100.33 91.0066C-100.33 91.0066 -93.8758 90.8734 -93.2631 82.191ZM103.729 72.9565H103.829C104.417 81.6131 110.616 81.7463 110.616 81.7463C110.616 81.7463 103.78 81.8854 103.78 91.8872C103.78 81.8854 96.945 81.7463 96.945 81.7463C96.945 81.7463 103.141 81.6131 103.729 72.9573V72.9565Z" fill="#E1E4E5"/>
<path d="M-82.5679 334.724V292.527C-82.5679 288.243 -80.2872 284.283 -76.5857 282.129L-40.4796 261.115C-38.6415 260.045 -36.5526 259.481 -34.4257 259.481C-32.2988 259.481 -30.2099 260.045 -28.3717 261.115L7.73507 282.129C9.55444 283.187 11.0643 284.705 12.1138 286.529C13.1634 288.354 13.716 290.422 13.7165 292.527V334.73C13.7165 339.015 11.4358 342.974 7.73507 345.129L-28.3717 366.142C-30.2099 367.212 -32.2988 367.776 -34.4257 367.776C-36.5526 367.776 -38.6415 367.212 -40.4796 366.142L-76.5857 345.129C-78.405 344.068 -79.9146 342.55 -80.9642 340.724C-82.0138 338.899 -82.5667 336.83 -82.5679 334.724V334.724Z" stroke="#E1E4E5" stroke-width="4" stroke-linecap="round" stroke-linejoin="round"/>
<path d="M-81.0635 286.725L-34.4257 313.625M-34.4257 367.785V313.625V367.785ZM-34.4257 313.625L12.212 286.725L-34.4257 313.625Z" stroke="#E1E4E5" stroke-width="4" stroke-linecap="round" stroke-linejoin="round"/>
<path d="M-82.5679 167.003V124.806C-82.5679 120.522 -80.2872 116.562 -76.5857 114.408L-40.4796 93.3939C-38.6415 92.3238 -36.5526 91.76 -34.4257 91.76C-32.2988 91.76 -30.2099 92.3238 -28.3717 93.3939L7.73507 114.408C9.55444 115.466 11.0643 116.984 12.1138 118.808C13.1634 120.633 13.716 122.701 13.7165 124.806V167.009C13.7165 171.294 11.4358 175.253 7.73507 177.408L-28.3717 198.421C-30.2099 199.492 -32.2988 200.055 -34.4257 200.055C-36.5526 200.055 -38.6415 199.492 -40.4796 198.421L-76.5857 177.408C-78.405 176.347 -79.9146 174.829 -80.9642 173.003C-82.0138 171.178 -82.5667 169.109 -82.5679 167.003V167.003Z" stroke="#E1E4E5" stroke-width="4" stroke-linecap="round" stroke-linejoin="round"/>
<path d="M-81.0635 119.004L-34.4257 145.904M-34.4257 200.065V145.905V200.065ZM-34.4257 145.904L12.212 119.004L-34.4257 145.904Z" stroke="#E1E4E5" stroke-width="4" stroke-linecap="round" stroke-linejoin="round"/>
<path d="M-34.8142 250.863V208.667C-34.8142 204.382 -32.5328 200.422 -28.8321 198.268L7.27401 177.254C9.11211 176.184 11.201 175.62 13.3279 175.62C15.4549 175.62 17.5438 176.184 19.3819 177.254L55.4887 198.268C57.3081 199.327 58.8179 200.844 59.8675 202.669C60.9171 204.494 61.4697 206.562 61.4701 208.667V250.87C61.4701 255.154 59.1894 259.114 55.4887 261.268L19.3819 282.282C17.5438 283.352 15.4549 283.916 13.3279 283.916C11.201 283.916 9.11211 283.352 7.27401 282.282L-28.8321 261.268C-30.6512 260.207 -32.1608 258.689 -33.2104 256.863C-34.2599 255.037 -34.8129 252.969 -34.8142 250.863V250.863Z" stroke="#E1E4E5" stroke-width="4" stroke-linecap="round" stroke-linejoin="round"/>
<path d="M-33.3098 202.865L13.3279 229.764M13.3279 283.925V229.766V283.925ZM13.3279 229.764L59.9657 202.865L13.3279 229.764Z" stroke="#E1E4E5" stroke-width="4" stroke-linecap="round" stroke-linejoin="round"/>
<path d="M14.105 334.724V292.527C14.105 288.243 16.3856 284.283 20.0864 282.129L56.1925 261.115C58.0306 260.045 60.1195 259.481 62.2464 259.481C64.3733 259.481 66.4623 260.045 68.3004 261.115L104.407 282.129C106.227 283.187 107.736 284.705 108.786 286.529C109.836 288.354 110.388 290.422 110.389 292.527V334.73C110.389 339.015 108.108 342.974 104.407 345.129L68.3004 366.142C66.4623 367.212 64.3733 367.776 62.2464 367.776C60.1195 367.776 58.0306 367.212 56.1925 366.142L20.0864 345.129C18.2673 344.068 16.7579 342.549 15.7084 340.724C14.6589 338.898 14.1061 336.83 14.105 334.724Z" stroke="#E1E4E5" stroke-width="4" stroke-linecap="round" stroke-linejoin="round"/>
<path d="M15.6094 286.725L62.2464 313.625M62.2464 367.785V313.625V367.785ZM62.2464 313.625L108.884 286.725L62.2464 313.625Z" stroke="#E1E4E5" stroke-width="4" stroke-linecap="round" stroke-linejoin="round"/>
<path d="M14.105 167.003V124.806C14.105 120.522 16.3856 116.562 20.0864 114.408L56.1925 93.3939C58.0306 92.3238 60.1195 91.76 62.2464 91.76C64.3733 91.76 66.4623 92.3238 68.3004 93.3939L104.407 114.408C106.227 115.466 107.736 116.984 108.786 118.808C109.836 120.633 110.388 122.701 110.389 124.806V167.009C110.389 171.294 108.108 175.253 104.407 177.408L68.3004 198.421C66.4623 199.492 64.3733 200.055 62.2464 200.055C60.1195 200.055 58.0306 199.492 56.1925 198.421L20.0864 177.408C18.2673 176.347 16.7579 174.828 15.7084 173.003C14.6589 171.177 14.1061 169.109 14.105 167.003V167.003Z" stroke="#E1E4E5" stroke-width="4" stroke-linecap="round" stroke-linejoin="round"/>
<path d="M15.6094 119.004L62.2464 145.904M62.2464 200.065V145.905V200.065ZM62.2464 145.904L108.884 119.004L62.2464 145.904Z" stroke="#E1E4E5" stroke-width="4" stroke-linecap="round" stroke-linejoin="round"/>
<path d="M61.8586 250.863V208.667C61.8586 204.382 64.1393 200.422 67.8401 198.268L103.947 177.254C105.785 176.184 107.874 175.62 110 175.62C112.127 175.62 114.216 176.184 116.054 177.254L152.161 198.268C153.98 199.327 155.49 200.844 156.54 202.669C157.589 204.494 158.142 206.562 158.142 208.667V250.87C158.142 255.154 155.862 259.114 152.161 261.268L116.054 282.282C114.216 283.352 112.127 283.916 110 283.916C107.874 283.916 105.785 283.352 103.947 282.282L67.8401 261.268C66.021 260.207 64.5115 258.689 63.4621 256.863C62.4126 255.037 61.8598 252.969 61.8586 250.863V250.863Z" stroke="#E1E4E5" stroke-width="4" stroke-linecap="round" stroke-linejoin="round"/>
<path d="M63.363 202.865L110 229.764M110.001 283.925V229.766V283.925ZM110.001 229.764L156.638 202.865L110.001 229.764Z" stroke="#E1E4E5" stroke-width="4" stroke-linecap="round" stroke-linejoin="round"/>
<path d="M110.777 334.724V292.527C110.777 288.243 113.058 284.283 116.759 282.129L152.865 261.115C154.703 260.045 156.792 259.481 158.919 259.481C161.046 259.481 163.135 260.045 164.973 261.115L201.079 282.129C202.899 283.187 204.409 284.705 205.458 286.529C206.508 288.354 207.06 290.422 207.061 292.527V334.73C207.061 339.015 204.78 342.974 201.079 345.129L164.973 366.142C163.135 367.212 161.046 367.776 158.919 367.776C156.792 367.776 154.703 367.212 152.865 366.142L116.759 345.129C114.939 344.068 113.43 342.549 112.381 340.724C111.331 338.898 110.778 336.83 110.777 334.724V334.724Z" stroke="#E1E4E5" stroke-width="4" stroke-linecap="round" stroke-linejoin="round"/>
<path d="M112.281 286.725L158.919 313.625M158.919 367.785V313.625V367.785ZM158.919 313.625L205.556 286.725L158.919 313.625Z" stroke="#E1E4E5" stroke-width="4" stroke-linecap="round" stroke-linejoin="round"/>
<path d="M110.777 167.003V124.806C110.777 120.522 113.058 116.562 116.759 114.408L152.865 93.3939C154.703 92.3238 156.792 91.76 158.919 91.76C161.046 91.76 163.135 92.3238 164.973 93.3939L201.079 114.408C202.899 115.466 204.409 116.984 205.458 118.808C206.508 120.633 207.06 122.701 207.061 124.806V167.009C207.061 171.294 204.78 175.253 201.079 177.408L164.973 198.421C163.135 199.492 161.046 200.055 158.919 200.055C156.792 200.055 154.703 199.492 152.865 198.421L116.759 177.408C114.939 176.347 113.43 174.828 112.381 173.003C111.331 171.177 110.778 169.109 110.777 167.003V167.003Z" stroke="#E1E4E5" stroke-width="4" stroke-linecap="round" stroke-linejoin="round"/>
<path d="M112.281 119.004L158.919 145.904M158.919 200.065V145.905V200.065ZM158.919 145.904L205.556 119.004L158.919 145.904Z" stroke="#E1E4E5" stroke-width="4" stroke-linecap="round" stroke-linejoin="round"/>
<path d="M158.531 250.863V208.667C158.531 204.382 160.811 200.422 164.512 198.268L200.619 177.254C202.457 176.184 204.546 175.62 206.673 175.62C208.8 175.62 210.889 176.184 212.727 177.254L248.833 198.268C250.653 199.327 252.163 200.844 253.212 202.669C254.262 204.493 254.815 206.562 254.815 208.667V250.87C254.815 255.154 252.534 259.114 248.833 261.268L212.727 282.282C210.889 283.352 208.8 283.916 206.673 283.916C204.546 283.916 202.457 283.352 200.619 282.282L164.512 261.268C162.693 260.207 161.184 258.689 160.134 256.863C159.085 255.037 158.532 252.969 158.531 250.863V250.863Z" stroke="#E1E4E5" stroke-width="4" stroke-linecap="round" stroke-linejoin="round"/>
<path d="M160.035 202.865L206.673 229.764M206.673 283.925V229.766V283.925ZM206.673 229.764L253.311 202.865L206.673 229.764Z" stroke="#E1E4E5" stroke-width="4" stroke-linecap="round" stroke-linejoin="round"/>
<path d="M207.449 334.724V292.527C207.449 288.243 209.73 284.283 213.431 282.129L249.537 261.115C251.376 260.045 253.464 259.481 255.591 259.481C257.718 259.481 259.807 260.045 261.645 261.115L297.751 282.129C299.571 283.187 301.081 284.705 302.131 286.529C303.18 288.354 303.733 290.422 303.734 292.527V334.73C303.734 339.015 301.453 342.974 297.751 345.129L261.645 366.142C259.807 367.212 257.718 367.776 255.591 367.776C253.464 367.776 251.376 367.212 249.537 366.142L213.431 345.129C211.612 344.068 210.102 342.549 209.053 340.724C208.003 338.898 207.45 336.83 207.449 334.724V334.724Z" stroke="#E1E4E5" stroke-width="4" stroke-linecap="round" stroke-linejoin="round"/>
<path d="M208.954 286.725L255.591 313.625M255.591 367.785V313.625V367.785ZM255.591 313.625L302.229 286.725L255.591 313.625Z" stroke="#E1E4E5" stroke-width="4" stroke-linecap="round" stroke-linejoin="round"/>
</svg>
