<svg width="248" height="96" viewBox="0 0 248 96" fill="none" xmlns="http://www.w3.org/2000/svg">
<path d="M18.752 52.4L35.008 70H25.152L12.096 54.832V70H4.8V22.64H12.096V50.16L24.896 34.736H35.008L18.752 52.4ZM43.9495 30.064C42.6268 30.064 41.5175 29.616 40.6215 28.72C39.7255 27.824 39.2775 26.7147 39.2775 25.392C39.2775 24.0693 39.7255 22.96 40.6215 22.064C41.5175 21.168 42.6268 20.72 43.9495 20.72C45.2295 20.72 46.3175 21.168 47.2135 22.064C48.1095 22.96 48.5575 24.0693 48.5575 25.392C48.5575 26.7147 48.1095 27.824 47.2135 28.72C46.3175 29.616 45.2295 30.064 43.9495 30.064ZM47.5335 34.736V70H40.2375V34.736H47.5335ZM74.9045 34.16C77.6778 34.16 80.1525 34.736 82.3285 35.888C84.5472 37.04 86.2752 38.7467 87.5125 41.008C88.7498 43.2693 89.3685 46 89.3685 49.2V70H82.1365V50.288C82.1365 47.1307 81.3472 44.72 79.7685 43.056C78.1898 41.3493 76.0352 40.496 73.3045 40.496C70.5738 40.496 68.3978 41.3493 66.7765 43.056C65.1978 44.72 64.4085 47.1307 64.4085 50.288V70H57.1125V34.736H64.4085V38.768C65.6032 37.3173 67.1178 36.1867 68.9525 35.376C70.8298 34.5653 72.8138 34.16 74.9045 34.16ZM96.243 52.208C96.243 48.6667 96.9683 45.5307 98.419 42.8C99.9123 40.0693 101.918 37.9573 104.435 36.464C106.995 34.928 109.832 34.16 112.947 34.16C115.251 34.16 117.512 34.672 119.731 35.696C121.992 36.6773 123.784 38 125.107 39.664V22.64H132.467V70H125.107V64.688C123.912 66.3947 122.248 67.8027 120.115 68.912C118.024 70.0213 115.614 70.576 112.883 70.576C109.811 70.576 106.995 69.808 104.435 68.272C101.918 66.6933 99.9123 64.5173 98.419 61.744C96.9683 58.928 96.243 55.7493 96.243 52.208ZM125.107 52.336C125.107 49.904 124.595 47.792 123.571 46C122.59 44.208 121.288 42.8427 119.667 41.904C118.046 40.9653 116.296 40.496 114.419 40.496C112.542 40.496 110.792 40.9653 109.171 41.904C107.55 42.8 106.227 44.144 105.203 45.936C104.222 47.6853 103.731 49.776 103.731 52.208C103.731 54.64 104.222 56.7733 105.203 58.608C106.227 60.4427 107.55 61.8507 109.171 62.832C110.835 63.7707 112.584 64.24 114.419 64.24C116.296 64.24 118.046 63.7707 119.667 62.832C121.288 61.8933 122.59 60.528 123.571 58.736C124.595 56.9013 125.107 54.768 125.107 52.336ZM174.37 51.504C174.37 52.8267 174.285 54.0213 174.114 55.088H147.17C147.383 57.904 148.429 60.1653 150.306 61.872C152.183 63.5787 154.487 64.432 157.218 64.432C161.143 64.432 163.917 62.7893 165.538 59.504H173.41C172.343 62.7467 170.402 65.4133 167.586 67.504C164.813 69.552 161.357 70.576 157.218 70.576C153.847 70.576 150.818 69.8293 148.13 68.336C145.485 66.8 143.394 64.6667 141.858 61.936C140.365 59.1627 139.618 55.9627 139.618 52.336C139.618 48.7093 140.343 45.5307 141.794 42.8C143.287 40.0267 145.357 37.8933 148.002 36.4C150.69 34.9067 153.762 34.16 157.218 34.16C160.546 34.16 163.511 34.8853 166.114 36.336C168.717 37.7867 170.743 39.8347 172.194 42.48C173.645 45.0827 174.37 48.0907 174.37 51.504ZM166.754 49.2C166.711 46.512 165.751 44.3573 163.874 42.736C161.997 41.1147 159.671 40.304 156.898 40.304C154.381 40.304 152.226 41.1147 150.434 42.736C148.642 44.3147 147.575 46.4693 147.234 49.2H166.754ZM188.846 39.856C189.913 38.064 191.321 36.6773 193.07 35.696C194.862 34.672 196.974 34.16 199.406 34.16V41.712H197.55C194.691 41.712 192.515 42.4373 191.022 43.888C189.571 45.3387 188.846 47.856 188.846 51.44V70H181.55V34.736H188.846V39.856Z" fill="#5A287D"/>
<path d="M226.073 51.1033C226.583 51.6381 227.414 51.6381 227.932 51.1033L235.872 42.8509C238.176 40.4518 238.045 36.4774 235.464 34.2662C233.218 32.3367 229.872 32.6836 227.815 34.8226L226.999 35.668L226.19 34.8298C224.133 32.6836 220.787 32.3367 218.541 34.2662C215.967 36.4774 215.829 40.4518 218.133 42.8509L226.073 51.1033ZM247.218 56.7109C246.357 55.9377 245.016 55.9883 244.111 56.7109L237.374 62.0511C236.55 62.7087 235.522 63.0628 234.458 63.0628H225.832C225.191 63.0628 224.666 62.5425 224.666 61.9066C224.666 61.2707 225.191 60.7504 225.832 60.7504H231.541C232.701 60.7504 233.78 59.9627 233.969 58.8282C234.21 57.383 233.087 56.1256 231.665 56.1256H219.999C218.031 56.1256 216.128 56.7976 214.596 58.0261L211.206 60.7504H207.167C206.525 60.7504 206 61.2707 206 61.9066V68.8438C206 69.4797 206.525 70 207.167 70H233.182C234.239 70 235.267 69.6459 236.098 68.9883L247.123 60.2446C248.231 59.3702 248.318 57.6937 247.218 56.7109Z" fill="#5A287D"/>
</svg>
