<svg width="295" height="693" viewBox="0 0 295 693" fill="none" xmlns="http://www.w3.org/2000/svg">
<path d="M48.9022 661.975C49.3202 661.63 49.8076 661.282 50.0864 660.792C50.6436 659.679 49.9472 658.425 49.3198 657.382C47.5083 654.596 45.7665 651.81 43.955 649.094C43.6762 648.608 43.3284 648.118 42.7708 647.981C42.074 647.769 41.3772 648.188 40.8198 648.608C38.4509 650.207 36.012 651.88 33.6431 653.483C30.6471 655.501 27.6511 657.519 25.0035 659.957C24.5157 660.443 23.958 660.933 23.8187 661.631C23.6793 662.187 23.8188 662.743 23.9582 663.3C25.1426 667.129 29.2536 672.701 33.7128 671.169C39.0778 669.217 44.3734 665.252 48.9022 661.975Z" fill="#C7B299"/>
<path d="M126.393 357.456C110.019 358.501 91.7642 363.306 84.309 376.537C80.4071 383.5 80.1985 391.648 80.2679 399.517C81.2435 461.561 97.2682 523.053 95.3868 585.097C94.0631 628.48 84.0306 671.933 88.0717 715.037C87.0961 714.9 86.0507 714.759 85.3539 714.971C83.1942 715.598 83.333 719.007 83.8906 720.889C84.0297 721.516 84.3085 722.072 84.7963 722.491C85.4233 723.048 86.3993 723.118 87.2357 723.189C96.4326 723.883 105.56 724.651 114.757 725.344C115.384 725.415 116.011 725.415 116.568 725.137C117.474 724.651 117.683 723.397 117.752 722.35C117.892 720.818 117.892 718.941 116.638 718.036C115.941 717.475 115.035 717.409 114.13 717.338C125.626 679.316 135.799 640.946 144.578 602.368C146.668 593.037 148.758 583.706 150.431 574.305C158.234 531.408 159 487.747 159.697 444.294C160.045 422.289 160.324 400.84 163.599 379.043C166.456 359.406 144.299 356.272 126.393 357.456Z" fill="#5A287D"/>
<path d="M36.158 670.472C37.0637 671.867 37.5513 673.677 36.9243 675.21C36.0882 677.298 33.5107 678.411 33.0927 680.571C32.8836 681.754 33.3015 682.938 33.7892 684.051C34.695 686.21 35.5307 688.369 36.8545 690.321C38.248 692.476 40.1299 694.22 41.8716 696.168C44.6587 699.374 46.9576 702.995 49.1872 706.545C49.8142 707.521 50.4411 708.493 50.8591 709.61C51.9045 712.392 51.4869 715.457 50.651 718.314C49.7452 721.167 48.4904 723.816 47.6544 726.669C46.1915 724.651 44.3799 722.977 42.5684 721.237C35.3918 714.481 28.7025 707.31 21.944 700.208C16.0913 694.009 10.2393 687.742 4.38662 681.547C2.85375 679.944 1.25064 678.133 1.18097 675.974C1.04162 674.093 2.08709 672.353 3.27156 670.891C6.82498 666.643 12.1201 664.276 17.0671 661.909C18.9483 661.004 21.1084 659.679 23.338 659.82C25.8463 659.957 27.4484 661.909 29.0509 663.578C31.2806 665.808 34.1374 667.756 36.158 670.472Z" fill="#333333"/>
<path d="M205.114 393.041C203.093 389.699 198.983 388.376 195.151 387.47C181.913 384.337 168.187 383.083 154.6 383.64C145.89 383.988 128.402 383.222 124.152 393.041C120.668 401.189 127.078 415.674 128.611 423.822C131.329 437.887 133.489 452.093 135.091 466.299C136.833 481.618 137.878 497.008 138.366 512.397C138.436 514.208 138.505 516.018 138.644 517.829C137.878 520.059 136.345 522.845 135.509 525.001C133.349 530.71 130.91 536.283 127.636 541.507C123.176 548.538 117.185 554.53 111.402 560.584C93.8436 578.972 77.5397 598.54 62.5595 618.941C56.3583 627.367 50.1575 636.283 41.9357 642.757C40.612 641.644 39.3575 640.531 38.0336 639.343C37.5459 638.928 37.0583 638.509 36.4313 638.579C36.0829 638.65 35.7344 638.857 35.4557 639.065C33.8532 640.39 31.1362 643.384 31.4846 645.751C31.833 648.051 35.3858 650.555 36.9186 652.088C39.4966 654.804 42.1447 657.519 44.3044 660.584C45.7678 662.673 47.0911 664.973 48.972 666.713C50.9232 668.453 53.6405 669.5 56.0791 668.594C58.3784 667.756 59.7026 665.389 60.8173 663.229C61.0263 662.814 61.3047 662.324 61.2349 661.838C61.1655 661.282 60.8173 660.862 60.4687 660.447C68.1329 653.761 74.6134 645.68 81.9988 638.579C89.6634 631.129 98.3721 624.722 106.942 618.244C134.464 597.285 162.124 574.583 187.486 551.395C191.109 544.082 192.294 535.934 193.479 527.858C199.401 486.007 203.721 443.945 206.299 401.815C206.508 398.891 206.647 395.687 205.114 393.041Z" fill="#5A287D"/>
<path d="M266.229 173.478C267.832 174.175 269.712 174.662 271.385 173.896C273.823 172.782 274.521 169.648 276.123 167.489C277.656 165.539 280.025 164.426 282.045 163.033C287.341 159.412 290.685 153.214 290.894 146.807C290.964 145.275 290.755 143.743 290.058 142.42C288.455 139.495 284.414 138.66 281.279 139.704C278.144 140.749 275.705 143.256 273.615 145.832C269.922 150.289 266.856 155.164 264.348 160.386C263.233 162.684 261.282 165.957 261.073 168.534C260.864 171.18 263.79 172.433 266.229 173.478Z" fill="#C7B299"/>
<path d="M65.2841 239.354C68.6284 216.513 73.6451 193.185 86.8133 174.244C99.9126 155.303 122.905 141.515 145.689 145.345C150.845 146.181 156.001 147.991 159.902 151.473C162.968 154.189 165.128 157.74 166.94 161.431C173.35 174.105 176.834 188.032 180.039 201.89C193.765 261.22 203.937 321.317 210.556 381.9C210.974 385.8 211.253 390.187 208.814 393.181C206.236 396.385 201.638 396.872 197.527 397.151C178.157 398.474 158.858 399.797 139.488 401.12C121.442 402.373 102.908 403.626 85.0018 399.936C61.7304 395.201 63.1236 387.192 61.312 365.117C57.8983 323.196 59.2225 280.927 65.2841 239.354Z" fill="#F1CD83"/>
<path d="M129.798 27.9375C118.302 37.9651 111.125 52.1711 107.084 66.8644C102.695 82.8807 101.997 100.638 109.174 115.679C116.351 130.651 132.794 141.932 149.237 139.495C160.246 137.824 169.652 130.651 176.829 122.156C195.293 100.36 200.448 68.5358 191.391 41.6558C187.698 30.7231 181.915 17.283 170.07 14.4279C157.25 11.364 139.135 19.79 129.798 27.9375Z" fill="#C7B299"/>
<path d="M183.654 204.187C192.154 224.939 200.585 245.76 209.086 266.512C211.385 272.222 213.754 278.28 212.639 284.339C210.688 294.993 199.052 300.703 188.531 303.071C167.698 273.545 145.751 244.715 122.828 216.791C109.799 200.914 89.4537 164.215 119.414 153.143C153.276 140.678 173.481 179.327 183.654 204.187Z" fill="#F1CD83"/>
<path d="M257.516 172.992C260.233 168.883 271.938 170.346 275.422 173.827C265.807 208.854 251.802 244.09 244.208 279.605C241.838 290.607 238.913 302.794 229.576 309.061C225.605 311.777 220.797 313.03 216.06 313.866C207.49 315.328 197.178 314.562 192.37 307.39C185.472 297.083 193.972 287.056 200.8 279.883C208.813 271.457 212.157 266.025 217.104 254.675C228.531 228.213 241.56 196.946 257.516 172.992Z" fill="#F1CD83"/>
<path d="M257.529 172.989C260.874 171.875 263.591 166.93 265.473 164.632C272.788 155.58 280.174 146.597 288.465 138.379C288.953 137.892 289.51 137.265 289.51 136.569C289.51 136.012 289.092 135.524 288.674 135.107C286.375 132.6 280.592 129.953 276.969 130.232C275.575 130.302 274.321 131.067 273.136 131.764C268.886 134.41 265.054 137.683 261.779 141.443C258.505 145.134 255.718 149.312 253 153.491C250.492 157.251 248.054 161.012 245.546 164.772C245.267 165.259 244.918 165.746 244.988 166.304C245.266 168.253 249.795 168.811 251.259 169.855C252.513 170.76 253.279 172.362 254.742 172.919C255.718 173.267 256.623 173.267 257.529 172.989Z" fill="#5E625E"/>
<path d="M254.874 166.582C255.292 166.861 255.779 167.14 256.267 167.209C257.312 167.279 258.149 166.374 258.776 165.538C263.235 159.758 268.182 154.257 273.477 149.243C277.449 145.483 281.908 141.723 283.649 136.5C283.719 136.221 283.858 135.873 283.719 135.595C283.58 135.386 283.371 135.246 283.092 135.107C281.908 134.55 280.723 133.923 279.539 133.366C278.772 133.018 278.005 132.6 277.169 132.6C275.985 132.6 274.94 133.366 274.034 134.062C268.321 138.519 263.166 143.742 258.776 149.522C256.546 152.377 254.595 155.441 252.783 158.575C252.226 159.55 250.206 162.126 250.415 163.24C250.624 164.494 253.829 165.886 254.874 166.582Z" fill="white"/>
<path d="M252.875 166.86C253.084 166.93 253.224 166.999 253.363 167.139C253.503 167.278 253.642 167.487 253.572 167.626C253.503 167.835 253.293 167.974 253.084 167.974C252.875 167.974 252.666 167.974 252.457 167.905C251.9 167.696 251.342 167.487 250.785 167.139C250.367 166.86 250.019 166.303 250.715 166.095C251.273 166.025 252.318 166.651 252.875 166.86Z" fill="white"/>
<path d="M202.77 52.5885C199.425 48.1319 196.917 43.1878 195.175 37.8954C193.991 34.2046 191.412 31.9763 188.835 29.2605C188.695 26.6143 187.023 24.2465 185.421 22.0878C179.08 13.8707 171.485 5.93231 161.591 2.72904C156.087 0.918495 150.235 0.640036 144.382 0.640036C138.39 0.570401 132.397 0.779307 126.614 2.38095C120.901 3.98258 115.397 7.04655 111.913 11.9211C110.729 13.5924 110.171 15.4031 110.032 17.2832C109.613 17.2136 109.196 17.1438 108.778 17.1438C93.2406 16.3082 83.9738 37.7561 80.072 54.0511C79.3058 57.2544 78.6086 60.5969 77.1452 63.4518C75.6823 66.3068 73.3135 68.6048 70.666 68.6746C74.3589 71.3206 78.9568 72.0872 83.0677 70.7638C83.4856 75.7083 80.6993 80.0258 79.3058 84.6913C77.8424 89.7052 78.0514 95.4848 79.9323 100.29C81.1867 96.6687 83.4865 93.6743 86.343 92.0726C88.7815 98.7579 91.847 106.139 97.3515 108.298C99.372 109.064 101.88 109.343 102.995 111.71C103.622 113.033 103.552 114.704 104.179 115.958C105.085 117.699 106.827 118.186 108.429 118.674C110.032 119.161 111.635 119.927 113.168 120.832C113.795 124.245 114.77 127.448 117.278 129.746C117.139 127.866 117.279 125.916 117.696 124.036C118.463 124.732 119.229 125.428 119.926 126.194C119.647 124.035 119.508 121.877 119.299 119.718C119.438 119.509 119.508 119.231 119.647 119.022C120.692 117.142 122.085 115.47 122.991 113.521C124.454 110.317 124.524 106.418 126.824 103.771C128.914 101.265 132.886 99.4539 132.328 96.2506C132.05 94.8582 131.004 93.8831 130.238 92.769C128.287 90.0532 127.869 86.5014 127.869 83.159C127.799 79.7468 128.496 75.7079 131.562 74.1062C133.791 72.9921 136.648 73.6885 138.668 75.2204C140.689 76.7523 142.013 78.981 143.337 81.1395C147.099 76.0563 145.845 69.023 146.96 62.8252C147.378 60.6667 148.145 58.5077 149.817 57.1149C151.489 55.7225 154.136 55.3048 155.809 56.7669C157.481 58.2295 157.62 61.0146 159.502 62.1288C161.104 63.1034 163.194 62.4074 164.936 61.6417C167.792 60.4578 170.719 59.2041 173.575 58.0206C174.202 57.742 174.83 57.4633 175.526 57.6024C177.059 57.8113 177.756 59.5525 178.314 61.0146C179.219 63.3825 180.404 65.6108 182.007 67.6302C182.355 68.048 182.703 68.5355 183.26 68.6746C184.654 69.0923 185.699 67.352 186.884 66.4467C188.904 64.9144 192.04 66.1676 193.364 68.3266C194.687 70.4851 194.757 73.1312 194.827 75.6381C198.45 70.7638 200.818 64.9841 201.724 58.9952C205.487 59.2045 209.319 59.413 213.081 59.5521C208.692 59.2041 205.278 55.931 202.77 52.5885Z" fill="#AA6A64"/>
<path d="M165.752 302.374C166.24 301.678 166.867 300.912 167.773 300.912C168.33 300.982 168.817 301.33 169.166 301.747C170.908 303.349 172.649 304.881 174.392 306.482C174.879 306.9 175.367 307.318 175.576 307.945C176.064 309.059 175.507 310.382 174.88 311.496C171.675 317.068 166.727 321.315 161.711 325.284C155.371 330.368 148.891 335.242 142.272 339.978C139.624 341.858 136.489 343.738 133.354 342.833C127.64 333.084 140.042 329.184 146.104 323.961C153.559 317.555 160.178 310.382 165.752 302.374Z" fill="#4D4D4D"/>
<path d="M120.116 142.908C125.411 142.212 130.775 141.724 136.141 141.376C143.875 140.888 152.167 140.819 158.646 145.067C165.892 149.872 169.097 159.133 169.236 167.838C165.125 164.495 161.015 161.222 156.904 157.88C153.56 155.234 150.215 152.518 146.244 150.916C141.297 148.966 135.862 148.897 130.497 148.827C128.198 148.827 123.042 149.802 121.022 148.688C118.583 147.435 119.628 145.345 120.116 142.908Z" fill="#4D4D4D"/>
</svg>
